<svg xmlns="http://www.w3.org/2000/svg" width="20" height="20" viewBox="0 0 256 256">
  <defs>
    <filter id="shadow" x="-50%" y="-50%" width="200%" height="200%">
      <feDropShadow dx="0" dy="6" stdDeviation="16" flood-color="black" flood-opacity="0.8" />
    </filter>
  </defs>
  <path filter="url(#shadow)" fill="white" stroke="white" stroke-width="15"
    d="M204 64v104a12 12 0 0 1-24 0V93L72.49 200.49a12 12 0 0 1-17-17L163 76H88a12 12 0 0 1 0-24h104a12 12 0 0 1 12 12" />
  <path fill="currentColor"
    d="M204 64v104a12 12 0 0 1-24 0V93L72.49 200.49a12 12 0 0 1-17-17L163 76H88a12 12 0 0 1 0-24h104a12 12 0 0 1 12 12" />
</svg>
